<svg xmlns="http://www.w3.org/2000/svg" version="1.1" xmlns:xlink="http://www.w3.org/1999/xlink" xmlns:svgjs="http://svgjs.dev/svgjs" width="1000" height="1000" viewBox="0 0 1000 1000"><rect width="1000" height="1000" fill="#000000"></rect><g transform="matrix(0.7,0,0,0.7,149.84897959183667,150.19913061224486)"><svg viewBox="0 0 343 343" data-background-color="#ffffff" preserveAspectRatio="xMidYMid meet" height="999" width="1000" xmlns="http://www.w3.org/2000/svg" xmlns:xlink="http://www.w3.org/1999/xlink"><g id="tight-bounds" transform="matrix(1,0,0,1,0.0740000000000407,0.07400000000001228)"><svg viewBox="0 0 342.85155851775386 342.85155851775386" height="342.85155851775386" width="342.85155851775386"><g><svg></svg></g><g><svg viewBox="0 0 342.85155851775386 342.85155851775386" height="342.85155851775386" width="342.85155851775386"><g><path d="M0 171.426c0-94.676 76.75-171.426 171.426-171.426 94.676 0 171.426 76.75 171.426 171.426 0 94.676-76.75 171.426-171.426 171.426-94.676 0-171.426-76.75-171.426-171.426zM171.426 336.821c91.345 0 165.395-74.05 165.395-165.395 0-91.345-74.05-165.395-165.395-165.395-91.345 0-165.395 74.05-165.395 165.395 0 91.345 74.05 165.395 165.395 165.395z" data-fill-palette-color="tertiary" fill="#ffffff" stroke="transparent"></path><ellipse rx="164.56874808852186" ry="164.56874808852186" cx="171.42577925887693" cy="171.42577925887693" fill="#ffffff" stroke="transparent" stroke-width="0" fill-opacity="1" data-fill-palette-color="tertiary"></ellipse></g><g transform="matrix(1,0,0,1,64.84655864529837,83.88133617144791)"><svg viewBox="0 0 213.1584412271571 175.08888617485803" height="175.08888617485803" width="213.1584412271571"><g><svg viewBox="0 0 213.1584412271571 175.08888617485803" height="175.08888617485803" width="213.1584412271571"><g><svg viewBox="0 0 213.1584412271571 175.08888617485803" height="175.08888617485803" width="213.1584412271571"><g transform="matrix(1,0,0,1,0,108.21195587380564)"><svg viewBox="0 0 213.1584412271571 66.87693030105238" height="66.87693030105238" width="213.1584412271571"><g id="textblocktransform"><svg viewBox="0 0 213.1584412271571 66.87693030105238" height="66.87693030105238" width="213.1584412271571" id="textblock"><g><svg viewBox="0 0 213.1584412271571 66.87693030105238" height="66.87693030105238" width="213.1584412271571"><g transform="matrix(1,0,0,1,0,0)"><svg width="213.1584412271571" viewBox="3.9000000953674316 -35 113.13999938964844 35.5" height="66.87693030105238" data-palette-color="#ffffff"><path d="M9.8 0L5.1 0Q4.6 0 4.25-0.35 3.9-0.7 3.9-1.2L3.9-1.2 3.9-33.8Q3.9-34.3 4.25-34.65 4.6-35 5.1-35L5.1-35 9.8-35Q10.35-35 10.68-34.65 11-34.3 11-33.8L11-33.8 11-1.2Q11-0.7 10.68-0.35 10.35 0 9.8 0L9.8 0ZM23.65 0L19.45 0Q18.95 0 18.6-0.35 18.25-0.7 18.25-1.2L18.25-1.2 18.25-24.8Q18.25-25.3 18.6-25.65 18.95-26 19.45-26L19.45-26 23.35-26Q23.85-26 24.2-25.65 24.55-25.3 24.55-24.8L24.55-24.8 24.55-23.1Q25.6-24.5 27.37-25.48 29.15-26.45 31.6-26.5L31.6-26.5Q37.3-26.6 39.55-22.05L39.55-22.05Q40.7-24.05 42.87-25.28 45.05-26.5 47.7-26.5L47.7-26.5Q50.3-26.5 52.42-25.3 54.55-24.1 55.77-21.68 57-19.25 57-15.55L57-15.55 57-1.2Q57-0.7 56.65-0.35 56.3 0 55.8 0L55.8 0 51.7 0Q51.2 0 50.85-0.35 50.5-0.7 50.5-1.2L50.5-1.2 50.5-15.15Q50.5-17.4 49.85-18.73 49.2-20.05 48.1-20.6 47-21.15 45.65-21.15L45.65-21.15Q44.55-21.15 43.45-20.6 42.35-20.05 41.65-18.73 40.95-17.4 40.95-15.15L40.95-15.15 40.95-1.2Q40.95-0.7 40.6-0.35 40.25 0 39.75 0L39.75 0 35.65 0Q35.15 0 34.8-0.35 34.45-0.7 34.45-1.2L34.45-1.2 34.45-15.15Q34.45-17.4 33.75-18.73 33.05-20.05 31.95-20.6 30.85-21.15 29.6-21.15L29.6-21.15Q28.45-21.15 27.35-20.58 26.25-20 25.55-18.7 24.85-17.4 24.85-15.15L24.85-15.15 24.85-1.2Q24.85-0.7 24.5-0.35 24.15 0 23.65 0L23.65 0ZM74.55 0.5L74.55 0.5Q69 0.5 65.75-2.7 62.5-5.9 62.25-11.8L62.25-11.8Q62.2-12.3 62.2-13.08 62.2-13.85 62.25-14.3L62.25-14.3Q62.45-18.1 63.97-20.83 65.5-23.55 68.2-25.03 70.9-26.5 74.55-26.5L74.55-26.5Q78.59-26.5 81.34-24.83 84.09-23.15 85.5-20.18 86.9-17.2 86.9-13.3L86.9-13.3 86.9-12.25Q86.9-11.75 86.55-11.4 86.2-11.05 85.65-11.05L85.65-11.05 69.05-11.05Q69.05-11.05 69.05-10.9 69.05-10.75 69.05-10.65L69.05-10.65Q69.09-8.9 69.72-7.43 70.34-5.95 71.57-5.05 72.8-4.15 74.5-4.15L74.5-4.15Q75.9-4.15 76.84-4.58 77.8-5 78.4-5.55 79-6.1 79.25-6.45L79.25-6.45Q79.7-7.05 79.97-7.18 80.25-7.3 80.8-7.3L80.8-7.3 85.09-7.3Q85.59-7.3 85.92-7 86.25-6.7 86.2-6.25L86.2-6.25Q86.15-5.45 85.37-4.3 84.59-3.15 83.15-2.05 81.7-0.95 79.52-0.23 77.34 0.5 74.55 0.5ZM69.05-15.4L69.05-15.25 80.09-15.25 80.09-15.4Q80.09-17.35 79.45-18.82 78.8-20.3 77.55-21.13 76.3-21.95 74.55-21.95L74.55-21.95Q72.8-21.95 71.55-21.13 70.3-20.3 69.67-18.82 69.05-17.35 69.05-15.4L69.05-15.4ZM97.79 0L93.39 0Q92.89 0 92.54-0.35 92.19-0.7 92.19-1.2L92.19-1.2 92.19-24.8Q92.19-25.3 92.54-25.65 92.89-26 93.39-26L93.39-26 97.49-26Q97.99-26 98.34-25.65 98.69-25.3 98.69-24.8L98.69-24.8 98.69-22.75Q99.99-24.35 102.02-25.43 104.04-26.5 107.04-26.5L107.04-26.5Q110.09-26.5 112.34-25.13 114.59-23.75 115.82-21.25 117.04-18.75 117.04-15.25L117.04-15.25 117.04-1.2Q117.04-0.7 116.69-0.35 116.34 0 115.84 0L115.84 0 111.44 0Q110.94 0 110.59-0.35 110.24-0.7 110.24-1.2L110.24-1.2 110.24-14.95Q110.24-17.85 108.82-19.5 107.39-21.15 104.69-21.15L104.69-21.15Q102.09-21.15 100.54-19.5 98.99-17.85 98.99-14.95L98.99-14.95 98.99-1.2Q98.99-0.7 98.64-0.35 98.29 0 97.79 0L97.79 0Z" opacity="1" transform="matrix(1,0,0,1,0,0)" fill="#000000" class="undefined-text-0" data-fill-palette-color="quaternary" id="text-0"></path></svg></g></svg></g></svg></g></svg></g><g transform="matrix(1,0,0,1,68.0327342505062,0)"><svg viewBox="0 0 77.09297272614471 92.42391767605439" height="92.42391767605439" width="77.09297272614471"><g><svg xmlns:x="http://ns.adobe.com/Extensibility/1.0/" xmlns:i="http://ns.adobe.com/AdobeIllustrator/10.0/" xmlns:graph="http://ns.adobe.com/Graphs/1.0/" xmlns="http://www.w3.org/2000/svg" xmlns:xlink="http://www.w3.org/1999/xlink" xmlns:a="http://ns.adobe.com/AdobeSVGViewerExtensions/3.0/" version="1.0" x="0" y="0" viewBox="15.409414291381836 5.365886211395264 70.26834106445312 84.24211883544922" enable-background="new 0 0 100 100" xml:space="preserve" height="92.42391767605439" width="77.09297272614471" class="icon-icon-0" data-fill-palette-color="quaternary" id="icon-0"><g fill="#ffffff" data-fill-palette-color="quaternary"><path d="M76.873 51.439c0.992-4.451 0.521-8.288-1.047-8.571-1.541-0.278-3.568 2.969-4.58 7.296-0.297-3.933-0.246-6.94-0.047-9.21l-0.107-0.032c-4.963-1.708-9.375-5.72-12.201-10.562-2.295 4.116-7.693 9.138-14.768 13.31-0.3 0.175-0.597 0.347-0.896 0.516 3.898 3.703 2.372 6.073-2.315 1.252-1.238 0.635-2.463 1.207-3.664 1.718 0.775 0.067 1.627 0.217 2.646 0.575 3.335 1.172 4.137 2.772 5.112 5.448-0.611-1.104-2.034-2.275-3.463-2.998 0.146 0.309 0.225 0.651 0.225 1.016 0 1.329-1.077 2.409-2.408 2.409s-2.409-1.08-2.409-2.409c0-0.816 0.406-1.539 1.03-1.977-1.347-0.139-2.45-0.01-4.14 0.146 0.604 1.307 1.293 3.279 2.906 4.333-2.077-0.755-3.58-2.915-4.517-4.722-1.245 0.367-2.438 0.652-3.558 0.848-2.377 0.411-4.376 0.436-5.902 0.053 0.077 0.508 0.172 1.029 0.291 1.562 0.992 4.448 3.067 7.825 4.636 7.542 0.771-0.139 1.277-1.133 1.475-2.638 0.325 2.54 0.813 5.8 1.228 9.438 0.783 6.85 16.542 18.85 16.542 18.85h6.05c0 0 15.76-12 16.541-18.85 0.418-3.639 0.906-6.898 1.229-9.438 0.199 1.505 0.703 2.499 1.475 2.638C73.805 59.265 75.881 55.888 76.873 51.439L76.873 51.439zM39.68 50.623c0 0.411 0.333 0.746 0.743 0.746 0.413 0 0.743-0.335 0.743-0.746 0-0.41-0.33-0.742-0.743-0.742C40.013 49.881 39.68 50.213 39.68 50.623L39.68 50.623zM37.082 9.779C50.484 3 62.221 4.163 64.176 12.359c2.6-2.033 5.246-2.537 7.797-1.229C82.258 16.4 90.189 50.526 82.768 84.799c-0.359 1.656-0.713 3.174-1.062 4.562-5.646 0.084-11.648 0.15-17.92 0.195-0.98-3.728-1.229-8.167-1.195-11.964-3.5 3.453-7.244 6.476-9.225 7.983h-6.792c0 0-4.284-3.259-8.367-7.163-0.43-0.408-0.863-0.83-1.296-1.265 0.055 3.909-0.174 8.577-1.205 12.461-6.021-0.02-11.85-0.061-17.421-0.117C11.11 60.714 17.357 19.759 37.082 9.779L37.082 9.779zM53.727 75.447c0.166-0.05 0.26-0.224 0.207-0.389-0.051-0.163-0.229-0.257-0.395-0.207-0.164 0.05-0.256 0.225-0.207 0.388C53.385 75.405 53.561 75.499 53.727 75.447L53.727 75.447zM52.992 75.784c0.184-0.07 0.277-0.273 0.207-0.451-0.07-0.179-0.275-0.269-0.461-0.197l-0.244 0.094c-0.184 0.07-0.277 0.273-0.207 0.453 0.068 0.177 0.275 0.265 0.461 0.195L52.992 75.784 52.992 75.784zM49.588 73.349h0.245c1.836 0 3.573-1.067 2.151-1.067h-2.272-2.274C46.016 72.281 47.752 73.349 49.588 73.349L49.588 73.349zM55.91 69.973c1.713 0.525 2.936-0.129 2.9-0.088-0.436 0.374-2.455 1.889-2.455 1.889l-0.012 0.516c0 2.482-2.904 4.499-6.544 4.513-3.637-0.014-6.58-2.03-6.58-4.513l-0.013-0.516c0 0-2.021-1.515-2.455-1.889-0.036-0.041 1.187 0.613 2.899 0.088 3.808-1.174 5.585-0.393 6.148 0.521C50.365 69.58 52.104 68.799 55.91 69.973L55.91 69.973zM59.629 47.729c3.838-1.349 5.361 0.199 8.828-1.509 0 0-1.879 6.097-5.686 7.478 1.613-1.054 2.305-3.026 2.908-4.333-1.688-0.156-2.793-0.285-4.139-0.146 0.621 0.438 1.029 1.16 1.029 1.977 0 1.329-1.078 2.409-2.408 2.409s-2.408-1.08-2.408-2.409c0-0.364 0.082-0.707 0.225-1.016-1.428 0.723-2.852 1.895-3.463 2.998C55.488 50.502 56.291 48.901 59.629 47.729L59.629 47.729zM61.787 50.623c0-0.41-0.332-0.742-0.74-0.742-0.412 0-0.746 0.332-0.746 0.742 0 0.411 0.334 0.746 0.746 0.746C61.455 51.369 61.787 51.034 61.787 50.623L61.787 50.623zM61.463 40.579c4.555-2.431 7.176 1.493 7.176 1.493s-4.604-3.165-8.057 1.12C52.734 52.932 50.787 46.275 61.463 40.579L61.463 40.579z" fill="#000000" data-fill-palette-color="quaternary"></path></g></svg></g></svg></g><g></g></svg></g></svg></g></svg></g></svg></g><defs></defs></svg><rect width="342.85155851775386" height="342.85155851775386" fill="none" stroke="none" visibility="hidden"></rect></g></svg></g></svg>